<?xml version="1.0" standalone="no"?>
<!DOCTYPE svg PUBLIC "-//W3C//DTD SVG 20010904//EN"
 "http://www.w3.org/TR/2001/REC-SVG-20010904/DTD/svg10.dtd">
<svg version="1.0" xmlns="http://www.w3.org/2000/svg"
 width="1024.000000pt" height="1024.000000pt" viewBox="0 0 1024.000000 1024.000000"
 preserveAspectRatio="xMidYMid meet">

<g transform="translate(0.000000,1024.000000) scale(0.100000,-0.100000)"
fill="currentColor" stroke="none">
<path d="M5066 8340 c-25 -36 -67 -96 -94 -135 -29 -44 -56 -72 -72 -77 -14
-3 -110 -18 -215 -32 -329 -45 -644 -137 -925 -272 -185 -89 -275 -141 -435
-248 -303 -204 -609 -497 -803 -771 -322 -452 -521 -959 -566 -1442 l-11 -122
-114 -78 c-63 -44 -116 -84 -118 -90 -3 -9 107 -94 204 -157 24 -16 33 -30 37
-61 3 -22 15 -110 27 -195 104 -758 491 -1448 1099 -1957 287 -241 628 -428
995 -546 232 -75 423 -116 684 -146 90 -11 167 -23 171 -28 5 -4 47 -69 93
-143 47 -74 90 -135 97 -135 7 0 48 56 91 125 43 69 84 134 92 144 11 16 37
21 148 33 536 54 1022 225 1469 516 564 368 1059 1053 1255 1737 53 186 105
474 105 585 0 32 8 40 120 125 66 50 120 92 120 94 0 1 -54 41 -119 87 l-120
84 -5 65 c-20 241 -59 422 -147 683 -158 467 -438 903 -807 1258 -523 505
-1180 803 -1927 876 l-80 8 -70 102 c-38 56 -84 119 -101 140 l-31 38 -47 -65z
m99 -160 c10 -11 16 -20 13 -20 -3 0 -13 9 -23 20 -10 11 -16 20 -13 20 3 0
13 -9 23 -20z m-25 -30 c19 -37 20 -58 20 -359 l0 -320 33 -5 c17 -2 86 -9
152 -16 295 -27 678 -157 897 -305 29 -19 58 -35 64 -35 23 0 164 200 164 232
0 9 -47 39 -117 76 -301 155 -613 251 -926 284 -71 7 -116 16 -114 23 13 39
359 -12 608 -91 197 -62 498 -194 551 -241 16 -14 18 -14 23 3 32 103 134 133
228 67 80 -56 129 -148 152 -287 4 -24 10 -35 14 -27 17 27 190 -115 389 -321
241 -249 452 -604 575 -965 84 -245 154 -603 117 -603 -5 0 -12 15 -14 33 -3
17 -13 75 -22 127 -42 256 -114 483 -233 735 -87 184 -254 440 -379 578 -150
167 -420 405 -444 391 -14 -9 -9 -63 8 -89 14 -21 16 -47 12 -150 l-4 -124
101 -103 c260 -266 497 -756 560 -1159 37 -235 30 -567 -16 -804 -67 -344
-245 -737 -443 -980 -240 -294 -533 -529 -861 -691 -159 -78 -410 -170 -545
-199 -34 -7 -34 -7 43 77 74 82 80 86 159 113 250 84 534 245 755 429 139 117
237 236 192 236 -7 0 -48 -35 -93 -78 -224 -215 -441 -364 -686 -472 -119 -53
-220 -92 -220 -85 0 3 54 84 121 181 66 96 140 211 164 257 146 276 164 558
51 807 -8 18 50 58 64 44 17 -17 59 -142 75 -223 12 -59 16 -119 13 -217 l-3
-136 31 37 c20 22 43 70 60 123 26 78 29 100 28 212 -1 107 -5 135 -27 197
l-25 71 25 37 c13 20 30 34 36 32 7 -2 23 -30 36 -63 39 -93 41 -285 5 -403
-3 -9 11 2 30 23 23 25 44 63 56 104 34 109 25 190 -36 329 l-36 83 71 76
c166 178 285 405 337 644 25 114 25 359 1 483 -38 190 -119 385 -222 536 -30
44 -55 83 -55 86 0 4 11 21 24 38 33 43 76 136 76 165 0 13 -7 36 -15 51 -13
26 -13 31 4 52 32 42 52 89 61 146 13 77 5 103 -30 103 l-27 0 18 67 c21 75
25 186 8 262 -14 65 -61 119 -114 131 -47 11 -61 -1 -71 -59 -25 -135 -213
-367 -374 -461 -88 -52 -112 -57 -147 -32 -126 89 -362 167 -633 208 -173 27
-475 25 -642 -5 -227 -40 -416 -101 -565 -183 l-73 -39 -72 36 c-91 47 -182
119 -254 204 -69 81 -110 151 -150 255 -28 74 -34 81 -60 84 -40 4 -94 -34
-119 -83 -30 -60 -28 -248 3 -325 12 -30 22 -56 22 -57 0 -2 -16 -3 -35 -3
-37 0 -39 -5 -36 -60 3 -43 30 -115 62 -165 l30 -48 -21 -30 c-20 -26 -21 -34
-12 -66 10 -31 39 -85 92 -168 13 -20 10 -27 -27 -80 -56 -80 -148 -267 -183
-373 -65 -193 -87 -450 -55 -636 22 -123 77 -281 137 -394 64 -121 94 -165
186 -273 l74 -89 -35 -77 c-49 -107 -61 -160 -54 -242 6 -75 49 -180 88 -215
l22 -19 -6 30 c-25 137 -29 179 -24 245 6 76 41 200 58 200 5 0 21 -18 36 -41
l27 -40 -22 -67 c-38 -120 -45 -193 -27 -291 17 -89 56 -186 97 -234 l23 -28
0 168 c0 148 3 177 23 243 36 114 67 169 91 163 38 -10 43 -27 23 -74 -62
-144 -75 -356 -33 -529 40 -165 105 -284 308 -567 40 -56 73 -105 73 -108 0
-9 -29 1 -145 47 -276 110 -551 293 -748 497 -73 77 -97 90 -97 55 0 -8 44
-61 98 -116 155 -161 364 -308 597 -419 115 -55 300 -128 327 -130 14 -1 143
-158 135 -165 -2 -3 -71 16 -153 41 -428 133 -758 328 -1049 620 -242 242
-387 448 -499 706 -207 479 -255 977 -140 1459 87 367 228 659 454 939 46 57
104 118 127 135 36 25 43 35 39 56 -3 14 -8 62 -11 106 -6 71 -4 88 14 130 18
40 20 53 10 76 -6 15 -14 28 -18 28 -31 0 -205 -142 -325 -264 -168 -173 -270
-306 -381 -496 -153 -262 -240 -482 -304 -770 -17 -75 -50 -284 -51 -322 0 -5
-7 -8 -16 -8 -14 0 -15 9 -9 63 48 460 239 936 528 1319 147 196 421 457 526
501 30 13 36 23 58 92 38 121 100 207 175 246 85 44 179 7 211 -84 1 -5 72 26
157 67 270 131 521 212 795 254 214 34 205 33 205 11 0 -14 -7 -19 -28 -19
-43 0 -303 -47 -416 -76 -157 -39 -375 -122 -540 -204 -135 -67 -151 -78 -148
-98 3 -28 88 -155 131 -196 l30 -29 63 41 c273 172 646 291 970 309 l106 6 4
326 c3 277 6 332 20 364 9 20 19 37 22 37 3 0 15 -18 26 -40z m-152 -114 c-30
-56 -79 -124 -92 -129 -24 -9 -28 8 -6 28 10 9 33 41 50 69 18 29 38 53 46 53
10 0 10 -5 2 -21z m-138 -54 c0 -17 -48 -30 -169 -47 -541 -75 -1078 -316
-1540 -689 -101 -82 -312 -292 -397 -396 -276 -337 -465 -704 -569 -1111 -32
-125 -65 -329 -65 -402 0 -43 -4 -59 -15 -64 -9 -3 -18 -3 -21 0 -3 2 2 63 10
135 50 430 204 841 457 1222 201 303 523 625 829 829 262 176 563 321 841 407
229 70 639 145 639 116z m800 -28 c304 -51 554 -133 840 -275 466 -232 893
-606 1178 -1032 237 -353 371 -672 446 -1057 33 -172 47 -320 30 -320 -7 0
-15 18 -18 43 -28 224 -52 346 -107 536 -128 448 -410 899 -795 1271 -326 316
-752 570 -1187 709 -164 52 -446 108 -622 123 -20 2 -31 9 -33 22 -4 17 1 18
60 11 34 -4 128 -18 208 -31z m1005 -789 c11 -67 -11 -170 -55 -261 -69 -144
-228 -290 -408 -375 -228 -108 -410 -199 -427 -213 -11 -9 11 -2 49 15 38 17
128 51 200 76 72 24 191 74 264 109 116 57 143 75 221 149 48 47 104 107 122
135 35 51 59 64 59 32 0 -10 -16 -51 -36 -92 -28 -59 -55 -94 -123 -162 -77
-76 -102 -93 -202 -142 -63 -30 -181 -77 -264 -104 -435 -143 -635 -294 -797
-602 -19 -36 -42 -84 -51 -107 l-17 -43 -73 0 -72 0 -19 53 c-77 223 -289 454
-536 581 -47 25 -173 74 -281 109 -289 96 -404 159 -527 292 -86 92 -152 225
-117 239 10 3 27 -13 54 -52 117 -171 300 -289 627 -402 82 -29 162 -59 177
-67 16 -8 31 -13 33 -10 2 2 -96 52 -219 111 -123 59 -259 131 -303 158 -116
74 -240 203 -293 306 -52 101 -76 206 -61 263 6 21 13 39 15 39 3 0 21 -32 40
-71 49 -99 92 -155 192 -248 104 -98 208 -154 438 -236 171 -62 317 -129 411
-191 166 -108 322 -333 414 -597 13 -37 27 -64 30 -60 4 5 19 44 35 88 54 156
148 317 256 439 65 74 189 161 313 221 102 49 154 70 378 149 223 79 422 259
508 458 14 32 28 58 32 58 4 0 10 -20 13 -45z m-868 -361 c-3 -3 -12 -4 -19
-1 -8 3 -5 6 6 6 11 1 17 -2 13 -5z m-2071 -322 c97 -75 219 -131 455 -208
320 -104 539 -230 666 -383 78 -95 85 -115 17 -51 -143 135 -289 215 -542 295
-379 120 -483 169 -614 287 -70 63 -135 179 -74 131 13 -10 54 -42 92 -71z
m2910 40 c-23 -45 -102 -122 -175 -171 -89 -61 -205 -113 -346 -156 -404 -123
-524 -179 -695 -326 -74 -63 -74 -63 -40 -19 54 70 142 152 225 209 110 76
254 141 480 215 237 79 371 143 480 231 82 66 98 70 71 17z m-3806 -108 c-182
-272 -317 -631 -384 -1016 -4 -24 -12 -38 -22 -38 -17 0 -14 25 22 201 60 292
198 630 346 853 76 114 102 144 106 122 2 -9 -29 -64 -68 -122z m4537 114 c37
-40 142 -209 197 -318 111 -216 188 -432 237 -662 32 -151 36 -192 17 -186 -6
2 -24 64 -39 137 -72 348 -194 644 -388 944 -34 52 -61 97 -61 100 0 14 17 6
37 -15z m-3542 -366 c10 -48 85 -153 166 -234 l77 -77 -20 -53 c-47 -124 -30
-256 47 -372 41 -62 92 -101 190 -147 57 -27 76 -31 164 -32 66 -1 102 2 105
9 2 6 14 14 26 17 18 5 24 -1 37 -31 72 -177 137 -310 149 -305 8 3 14 9 14
14 0 4 -36 81 -80 170 -73 146 -79 164 -65 178 19 19 19 19 116 -155 40 -74
77 -134 80 -134 4 0 12 6 18 14 9 11 5 25 -22 68 -64 100 -118 217 -108 235 7
14 13 10 33 -23 14 -22 38 -64 53 -94 15 -30 43 -79 61 -108 19 -29 34 -61 34
-71 0 -49 -121 -168 -228 -224 -98 -52 -169 -68 -292 -68 -129 0 -196 17 -320
78 -79 39 -109 61 -186 137 -105 105 -160 191 -209 328 -85 238 -70 501 41
738 40 85 92 170 104 170 5 0 11 -13 15 -28z m2669 -10 c140 -222 195 -487
150 -722 -41 -217 -131 -376 -292 -513 -75 -64 -216 -139 -307 -162 -78 -20
-240 -20 -319 1 -149 38 -336 175 -351 256 -6 31 -1 45 48 120 77 120 143 209
149 202 7 -6 -36 -92 -111 -222 -42 -72 -51 -96 -42 -105 9 -9 13 -9 19 1 4 7
45 77 91 156 80 136 85 144 107 134 22 -10 22 -11 6 -47 -9 -19 -39 -76 -66
-126 -27 -49 -57 -109 -67 -132 -17 -40 -17 -42 1 -58 18 -16 19 -15 28 17 5
18 40 97 78 176 65 138 69 143 93 137 114 -30 209 -23 307 20 78 34 117 68
168 143 75 111 92 226 50 344 -19 56 -19 56 29 78 23 11 32 17 20 14 -14 -3
-23 -1 -23 6 0 6 -5 8 -11 4 -6 -4 17 27 51 67 82 99 140 186 140 213 0 48 23
47 54 -2z m-291 -155 c-98 -87 -193 -139 -358 -196 -66 -23 -172 -67 -235 -98
-106 -52 -123 -65 -218 -160 -130 -131 -151 -136 -91 -23 39 73 120 172 186
227 122 103 255 164 464 214 74 17 166 40 204 49 39 10 73 19 78 19 4 1 -10
-14 -30 -32z m-1943 -22 c85 -19 178 -42 205 -51 145 -47 343 -181 430 -291
55 -70 113 -179 101 -190 -4 -4 -36 22 -70 58 -127 136 -227 197 -486 293
-146 55 -287 130 -350 187 -54 48 -66 48 170 -6z m1910 -208 c13 -37 20 -82
20 -131 0 -64 -4 -83 -32 -137 -79 -152 -266 -227 -422 -169 -60 23 -134 82
-166 136 l-22 35 27 34 c14 19 29 35 33 35 4 0 18 -18 32 -40 51 -83 160 -124
263 -101 139 31 228 194 174 321 -15 34 -15 34 22 61 20 15 39 24 44 20 4 -4
16 -33 27 -64z m-1995 51 c29 -13 29 -14 14 -92 -36 -196 125 -347 314 -292
56 16 100 50 144 111 l21 30 33 -32 32 -32 -28 -38 c-50 -68 -89 -104 -140
-131 -43 -23 -63 -27 -135 -27 -71 0 -94 4 -141 26 -79 37 -133 90 -171 167
-29 58 -33 76 -32 142 0 61 5 85 27 128 15 28 29 52 32 52 2 0 16 -5 30 -12z
m1852 -80 c28 -27 29 -48 2 -82 -26 -33 -63 -34 -85 -1 -17 26 -12 58 14 88
20 23 41 22 69 -5z m-1717 -15 c27 -35 23 -73 -11 -92 -55 -31 -102 38 -69
100 15 28 55 24 80 -8z m863 -372 l29 -52 -12 -119 c-6 -65 -10 -165 -9 -222
1 -79 -4 -122 -21 -186 -12 -45 -26 -82 -30 -82 -20 0 -49 153 -56 305 -14
286 -13 313 19 368 16 27 34 46 40 44 7 -2 25 -27 40 -56z m257 -71 c-11 -16
-26 -33 -33 -37 -12 -7 0 11 32 50 23 28 24 20 1 -13z m-2875 -76 c28 -18 65
-74 65 -98 0 -14 -29 -16 -297 -16 -164 0 -327 -5 -363 -10 -35 -5 -66 -8 -68
-6 -6 6 201 119 242 132 26 8 105 13 219 13 147 1 182 -2 202 -15z m5620 -19
c59 -31 168 -106 161 -112 -2 -2 -43 1 -92 7 -49 5 -209 10 -356 10 -231 0
-268 2 -268 15 0 19 68 94 95 106 11 5 106 7 210 6 190 -2 190 -2 250 -32z
m-2954 -226 c-5 -13 -10 -19 -10 -12 -1 15 10 45 15 40 3 -2 0 -15 -5 -28z
m-2936 -1 c3 -7 11 -73 20 -146 66 -580 339 -1148 762 -1584 122 -125 148
-158 125 -158 -15 0 -242 233 -317 325 -226 278 -417 645 -520 1000 -53 182
-95 422 -95 540 0 34 16 48 25 23z m5559 -35 c-27 -238 -101 -540 -181 -733
-100 -243 -272 -535 -415 -703 -115 -134 -248 -253 -248 -221 0 4 50 58 111
122 238 247 427 553 553 897 67 181 146 529 146 639 0 35 6 46 26 46 10 0 12
-12 8 -47z m153 -40 c-6 -103 -66 -388 -109 -523 -111 -349 -273 -653 -504
-946 -76 -96 -300 -334 -315 -334 -22 0 0 29 127 167 163 177 279 329 381 501
146 245 250 493 318 760 37 145 75 353 75 413 0 37 6 49 23 49 6 0 8 -33 4
-87z m-5553 65 c2 -7 13 -83 25 -169 44 -330 148 -630 324 -935 110 -190 210
-323 366 -485 58 -61 87 -97 80 -104 -6 -6 -47 30 -117 101 -354 363 -601 862
-681 1375 -28 179 -31 229 -14 229 7 0 15 -6 17 -12z m2757 -45 c-12 -20 -14
-14 -5 12 4 9 9 14 11 11 3 -2 0 -13 -6 -23z m2871 -14 c-23 -23 -45 -39 -48
-37 -5 6 74 78 85 78 3 0 -13 -19 -37 -41z m-5958 -87 c2 -4 9 -46 16 -92 24
-185 84 -433 148 -610 98 -270 308 -640 486 -855 37 -44 144 -157 238 -251
180 -181 214 -241 56 -101 -429 383 -751 915 -893 1476 -27 107 -75 374 -75
417 0 23 14 32 24 16z m6049 -44 c-59 -544 -282 -1073 -640 -1518 -96 -119
-329 -357 -387 -395 -65 -43 -27 5 122 152 276 274 437 498 607 844 137 280
237 606 261 854 4 39 11 78 16 88 16 30 26 18 21 -25z m-2181 -1221 c-3 -212
-99 -404 -311 -620 -125 -128 -158 -154 -148 -118 3 11 3 21 -1 21 -3 0 -46
-28 -96 -62 -50 -35 -127 -83 -171 -109 l-80 -45 -5 -230 c-4 -161 -9 -236
-18 -252 -17 -30 -27 -22 -47 38 -12 37 -17 97 -19 250 l-4 202 -80 43 c-73
39 -155 92 -225 146 l-28 21 7 -26 c3 -15 2 -26 -4 -26 -39 0 -249 215 -329
337 -102 155 -143 275 -143 414 0 88 15 163 30 154 5 -3 12 -31 16 -63 30
-251 225 -538 479 -707 84 -56 288 -177 317 -188 16 -6 217 107 344 193 235
159 423 444 475 720 l13 65 14 -35 c9 -23 14 -66 14 -123z m881 -218 c76 -88
174 -322 212 -503 20 -102 10 -116 -44 -61 -30 31 -53 75 -100 194 -59 146
-104 241 -153 323 l-22 38 24 25 c13 14 29 25 36 25 7 0 28 -18 47 -41z
m-3390 10 c8 -12 1 -31 -27 -77 -68 -112 -167 -389 -152 -427 5 -13 20 -5 78
43 114 93 178 165 178 201 0 59 3 60 92 34 45 -13 84 -26 87 -29 7 -7 -70 -77
-164 -148 -84 -64 -155 -101 -232 -121 -31 -8 -69 -26 -83 -40 -30 -29 -43
-31 -60 -10 -10 12 -9 32 4 103 25 127 50 203 110 327 63 129 95 168 133 163
14 -2 31 -10 36 -19z m3237 -209 c0 -5 -10 -10 -22 -9 -22 0 -22 1 -3 9 11 5
21 9 23 9 1 1 2 -3 2 -9z m-113 -36 c-3 -3 -12 -4 -19 -1 -8 3 -5 6 6 6 11 1
17 -2 13 -5z m-12 -16 c5 4 5 1 1 -6 -6 -10 -11 -10 -22 -1 -8 6 -14 14 -14
16 0 3 6 0 13 -6 8 -6 18 -7 22 -3z m-2703 -232 c101 -52 219 -109 263 -126
112 -45 293 -95 427 -120 160 -29 160 -29 155 -43 -5 -16 -54 -11 -207 19
-158 31 -386 107 -533 177 -192 91 -344 187 -298 187 5 0 92 -42 193 -94z
m2682 85 c12 -19 -263 -167 -436 -235 -184 -72 -416 -130 -565 -142 -121 -10
-79 9 97 44 264 53 517 144 765 276 131 70 131 70 139 57z m166 -80 c0 -14
-51 -50 -162 -115 -177 -103 -406 -199 -634 -266 -140 -41 -458 -99 -471 -86
-14 14 27 34 85 41 345 42 749 186 1067 379 90 54 115 65 115 47z m-3046 -69
c215 -122 414 -209 624 -271 104 -31 307 -75 400 -87 32 -4 56 -13 59 -21 3
-8 4 -16 2 -18 -9 -8 -206 28 -359 66 -211 52 -378 113 -555 201 -240 121
-359 198 -303 198 7 0 66 -31 132 -68z m-221 -151 c128 -81 425 -227 557 -274
257 -90 442 -135 666 -162 164 -20 174 -22 174 -39 0 -15 -2 -15 -200 10 -315
41 -617 132 -915 274 -224 108 -465 259 -465 293 0 10 48 -16 183 -102z m3531
100 c7 -11 -85 -73 -264 -176 -346 -201 -661 -313 -1065 -380 -215 -35 -305
-42 -305 -23 0 12 26 18 118 27 497 53 883 189 1372 484 133 81 136 82 144 68z
m-1604 -361 c0 -12 -38 -90 -44 -90 -2 0 3 23 12 50 14 45 32 67 32 40z m-30
-10 c0 -5 -5 -10 -11 -10 -5 0 -7 5 -4 10 3 6 8 10 11 10 2 0 4 -4 4 -10z
m-139 -203 c-10 -9 -11 -8 -5 6 3 10 9 15 12 12 3 -3 0 -11 -7 -18z m-23 -42
c-6 -14 -13 -23 -15 -21 -5 5 15 46 22 46 3 0 -1 -11 -7 -25z m-124 -91 c3 -8
2 -12 -4 -9 -6 3 -10 10 -10 16 0 14 7 11 14 -7z m46 -25 c0 -6 -4 -7 -10 -4
-5 3 -10 11 -10 16 0 6 5 7 10 4 6 -3 10 -11 10 -16z m27 -11 c-3 -8 -6 -5 -6
6 -1 11 2 17 5 13 3 -3 4 -12 1 -19z m-17 -28 c-7 -4 -9 -13 -5 -20 6 -9 13
-6 26 11 10 13 19 20 19 14 0 -5 -8 -20 -18 -33 l-17 -22 -19 31 c-10 18 -14
29 -7 25 6 -4 11 -2 11 4 0 6 5 8 11 4 8 -5 8 -9 -1 -14z"/>
<path d="M4930 7309 c-124 -11 -284 -42 -410 -79 -191 -57 -490 -201 -490
-235 0 -24 21 -18 156 49 321 159 570 219 909 220 233 1 331 -11 540 -64 171
-44 281 -86 444 -171 78 -40 118 -56 125 -49 32 32 -189 149 -438 231 -272 90
-553 123 -836 98z"/>
<path d="M3336 6569 c-150 -132 -345 -455 -431 -713 -90 -271 -135 -571 -85
-571 11 0 17 18 23 70 48 427 198 789 458 1110 83 101 102 132 91 139 -5 3
-31 -13 -56 -35z"/>
<path d="M6836 6601 c-4 -5 32 -56 79 -113 279 -338 442 -724 480 -1135 5 -54
11 -73 21 -73 25 0 28 29 16 144 -30 285 -164 643 -337 901 -105 157 -243 303
-259 276z"/>
<path d="M2803 5134 c-7 -18 2 -140 12 -166 4 -10 16 -18 28 -18 19 0 19 4 14
68 -4 37 -7 82 -7 100 0 25 -4 32 -20 32 -11 0 -23 -7 -27 -16z"/>
<path d="M7397 5143 c-3 -5 -8 -50 -12 -100 -6 -79 -5 -93 8 -93 25 0 34 22
41 98 5 51 4 78 -5 88 -13 15 -25 18 -32 7z"/>
<path d="M2786 4818 c9 -100 57 -287 93 -364 39 -83 117 -166 194 -204 53 -26
70 -30 146 -30 152 0 151 4 -8 85 -155 78 -186 103 -236 185 -28 47 -101 230
-91 230 9 0 200 -108 256 -145 85 -57 149 -119 243 -237 43 -54 97 -111 122
-128 l45 -31 0 44 c0 24 -7 113 -15 197 -16 152 -39 246 -75 305 -26 43 -98
110 -107 101 -5 -4 -8 -49 -8 -99 1 -85 4 -99 38 -174 36 -78 79 -193 73 -193
-1 0 -27 41 -57 91 -76 129 -122 167 -340 279 -101 52 -205 110 -232 128 l-48
33 7 -73z"/>
<path d="M7395 4844 c-33 -19 -123 -67 -200 -105 -228 -115 -305 -181 -390
-339 -30 -54 -35 -59 -29 -30 4 19 24 77 46 130 22 52 46 117 54 145 15 54 19
171 6 179 -18 11 -109 -84 -140 -146 -37 -76 -48 -143 -57 -351 l-7 -158 24
18 c28 22 114 110 237 242 60 65 124 121 175 155 97 64 246 140 246 126 0 -26
-64 -173 -99 -227 -51 -79 -101 -116 -250 -189 l-126 -61 96 -8 c53 -4 112 -4
130 0 85 18 178 93 234 190 35 59 82 207 100 315 8 52 18 107 21 123 3 15 2
27 -3 26 -4 0 -35 -16 -68 -35z"/>
<path d="M3118 4143 c-71 -2 -128 -8 -128 -12 0 -5 9 -31 20 -57 52 -121 202
-279 318 -336 63 -31 72 -33 172 -32 89 1 153 10 288 40 l23 5 -28 23 c-63 52
-90 59 -255 66 -194 9 -229 23 -334 132 l-69 73 100 3 c124 3 171 -7 304 -65
124 -54 191 -76 191 -63 0 6 -4 10 -8 10 -5 0 -30 29 -56 65 -95 130 -197 158
-538 148z"/>
<path d="M6826 4140 c-121 -15 -233 -88 -264 -170 -3 -8 -12 -23 -21 -34 -15
-18 -15 -18 9 -11 14 4 72 27 130 50 58 24 133 50 166 59 66 17 264 22 264 7
0 -16 -149 -150 -192 -172 -37 -19 -65 -23 -208 -28 -176 -7 -213 -16 -260
-66 l-23 -24 24 -6 c13 -3 56 -12 94 -21 42 -10 118 -17 191 -17 l121 -1 69
39 c81 45 169 126 230 211 46 64 96 163 89 175 -3 4 -44 7 -92 8 -49 0 -126 3
-173 5 -47 2 -116 1 -154 -4z"/>
<path d="M3780 3646 c-65 -18 -149 -63 -130 -70 23 -9 363 -66 368 -62 2 3
-15 30 -38 61 -60 81 -105 97 -200 71z"/>
<path d="M6320 3643 c-30 -16 -116 -120 -106 -130 1 -2 35 3 74 12 39 8 124
20 189 26 65 7 124 15 131 18 7 4 -18 22 -63 46 -92 47 -169 57 -225 28z"/>
<path d="M7660 3102 c-35 -3 -35 -3 -31 -45 l5 -42 5 35 c5 31 9 35 36 35 23
0 30 -5 31 -20 2 -47 5 -55 14 -55 6 0 10 18 10 40 0 31 4 40 17 40 9 0 13 3
9 7 -8 8 -40 10 -96 5z"/>
<path d="M7837 3063 c8 -52 13 -54 13 -5 0 23 -4 42 -9 42 -6 0 -7 -17 -4 -37z"/>
<path d="M7770 3055 c0 -19 5 -35 10 -35 6 0 10 7 10 15 0 8 5 15 10 15 6 0
10 7 10 16 0 8 -4 12 -10 9 -5 -3 -10 -1 -10 4 0 6 -4 11 -10 11 -5 0 -10 -16
-10 -35z"/>
</g>
</svg>
